HIERARCHY
ROOT Hips
{
	OFFSET -0.001795 -0.223333 0.028219
	CHANNELS 6 Xposition Yposition Zposition Zrotation Yrotation Xrotation 
	JOINT LeftUpLeg
	{
		OFFSET 0.069520 -0.091406 -0.006815
		CHANNELS 3 Zrotation Yrotation Xrotation
		JOINT LeftLeg
		{
			OFFSET 0.034277 -0.375199 -0.004496
			CHANNELS 3 Zrotation Yrotation Xrotation
			JOINT LeftFoot
			{
				OFFSET -0.013596 -0.397961 -0.043693
				CHANNELS 3 Zrotation Yrotation Xrotation
				JOINT LeftToe
				{
					OFFSET 0.026358 -0.055791 0.119288
					CHANNELS 3 Zrotation Yrotation Xrotation
					End Site
					{
						OFFSET 0.000000 0.000000 0.000000
					}
				}
			}
		}
	}
	JOINT RightUpLeg
	{
		OFFSET -0.067670 -0.090522 -0.004320
		CHANNELS 3 Zrotation Yrotation Xrotation
		JOINT RightLeg
		{
			OFFSET -0.038290 -0.382569 -0.008850
			CHANNELS 3 Zrotation Yrotation Xrotation
			JOINT RightFoot
			{
				OFFSET 0.015774 -0.398415 -0.042312
				CHANNELS 3 Zrotation Yrotation Xrotation
				JOINT RightToe
				{
					OFFSET -0.025372 -0.048144 0.123348
					CHANNELS 3 Zrotation Yrotation Xrotation
					End Site
					{
						OFFSET 0.000000 0.000000 0.000000
					}
				}
			}
		}
	}
	JOINT Spine
	{
		OFFSET -0.002533 0.108963 -0.026696
		CHANNELS 3 Zrotation Yrotation Xrotation
		JOINT Spine1
		{
			OFFSET 0.005487 0.135180 0.001092
			CHANNELS 3 Zrotation Yrotation Xrotation
			JOINT Spine2
			{
				OFFSET 0.001457 0.052922 0.025425
				CHANNELS 3 Zrotation Yrotation Xrotation
				JOINT Neck
				{
					OFFSET -0.002778 0.213870 -0.042857
					CHANNELS 3 Zrotation Yrotation Xrotation
					JOINT Head
					{
						OFFSET 0.005152 0.064970 0.051349
						CHANNELS 3 Zrotation Yrotation Xrotation
						End Site
						{
							OFFSET 0.000000 0.000000 0.000000
						}
					}
				}
				JOINT LeftShoulder
				{
					OFFSET 0.078845 0.121749 -0.034090
					CHANNELS 3 Zrotation Yrotation Xrotation
					JOINT LeftArm
					{
						OFFSET 0.090977 0.030469 -0.008868
						CHANNELS 3 Zrotation Yrotation Xrotation
						JOINT LeftForeArm
						{
							OFFSET 0.259612 -0.012772 -0.027456
							CHANNELS 3 Zrotation Yrotation Xrotation
							JOINT LeftHand
							{
								OFFSET 0.249234 0.008986 -0.001171
								CHANNELS 3 Zrotation Yrotation Xrotation
								End Site
								{
									OFFSET 0.000000 0.000000 0.000000
								}
							}
						}
					}
				}
				JOINT RightShoulder
				{
					OFFSET -0.081759 0.118833 -0.038615
					CHANNELS 3 Zrotation Yrotation Xrotation
					JOINT RightArm
					{
						OFFSET -0.096012 0.032551 -0.009143
						CHANNELS 3 Zrotation Yrotation Xrotation
						JOINT RightForeArm
						{
							OFFSET -0.253742 -0.013329 -0.021401
							CHANNELS 3 Zrotation Yrotation Xrotation
							JOINT RightHand
							{
								OFFSET -0.255298 0.007772 -0.005559
								CHANNELS 3 Zrotation Yrotation Xrotation
								End Site
								{
									OFFSET 0.000000 0.000000 0.000000
								}
							}
						}
					}
				}
			}
		}
	}
}
MOTION
Frames: 15
Frame Time: 0.050000
0.133717 0.934824 0.423129 -2.259026 -80.213419 8.308770 1.009982 0.734480 0.947627 -2.501747 1.024048 -4.456034 6.566479 16.687956 2.475019 0.000000 0.000000 0.000000 -2.701948 1.244477 -9.967778 1.519128 0.762633 -0.912339 -0.613505 -1.337108 3.848405 0.000000 0.000000 0.000000 4.403976 -0.254001 3.169590 8.617330 0.131961 3.924137 -6.182366 -8.784676 1.546959 9.673914 -6.802094 -25.406624 0.000000 0.000000 0.000000 -24.116421 -39.486748 40.469733 -2.131665 -33.886560 -2.382620 48.919143 -18.353914 -8.254316 0.000000 0.000000 0.000000 20.083843 40.701581 0.945506 28.622666 19.330102 6.056296 -27.924103 40.723532 -16.205203 0.000000 0.000000 0.000000 
0.128882 0.935268 0.420386 0.725780 -81.302058 5.385585 0.459857 0.656669 0.890492 -2.126187 0.960968 -3.888468 5.823915 16.017145 1.543325 0.000000 0.000000 0.000000 -2.804289 1.212484 -9.440904 1.713811 0.827105 -1.042414 -2.034067 -2.309165 3.082771 0.000000 0.000000 0.000000 4.431545 -0.214899 2.423124 8.849889 0.513998 5.116758 -6.172487 -8.536746 0.801192 8.822241 -6.527924 -25.110539 0.000000 0.000000 0.000000 -23.898151 -40.067703 40.617373 -1.539196 -33.976723 -2.436199 47.889190 -17.365415 -7.673721 0.000000 0.000000 0.000000 19.391524 41.000555 1.459542 25.830457 20.499170 5.583575 -26.795945 37.034874 -13.780125 0.000000 0.000000 0.000000 
0.124456 0.935458 0.418318 2.778397 -82.119161 3.135814 0.138700 0.671418 1.371149 -1.819739 0.889364 -3.888041 5.703589 15.377687 2.158548 0.000000 0.000000 0.000000 -3.133649 1.245147 -9.171785 2.185123 0.887950 -0.461425 -2.883903 -2.916127 2.684638 0.000000 0.000000 0.000000 4.763602 -0.202805 2.315620 8.864398 0.596424 5.116892 -6.157934 -7.926184 0.660904 8.289665 -6.425534 -24.483314 0.000000 0.000000 0.000000 -23.646870 -40.260310 40.482996 -2.355151 -34.465140 -2.288465 47.254992 -17.558005 -7.633084 0.000000 0.000000 0.000000 19.475168 41.372866 1.657028 23.468948 20.005394 5.082932 -24.654132 35.647964 -11.963532 0.000000 0.000000 0.000000 
0.120952 0.935534 0.416624 6.104793 -82.654160 0.183922 -0.143307 0.640129 1.430479 -1.623171 0.835025 -4.230395 5.207532 14.546710 1.944883 0.000000 0.000000 0.000000 -3.328247 1.270720 -9.019426 2.592610 0.984992 -0.759222 -4.206193 -4.071841 2.193325 0.000000 0.000000 0.000000 4.740447 -0.136066 1.339043 9.166045 0.806484 5.791933 -6.054727 -7.595137 0.421670 7.563451 -6.198733 -24.038704 0.000000 0.000000 0.000000 -22.850175 -40.259246 39.810358 -2.814975 -35.240116 -2.170997 46.109930 -17.434396 -7.280002 0.000000 0.000000 0.000000 19.149614 40.842963 1.611485 21.817587 20.161912 4.670410 -22.711164 33.758500 -10.278455 0.000000 0.000000 0.000000 
0.118542 0.935829 0.415235 8.618152 -82.944209 -2.425206 -0.481473 0.589958 1.428764 -1.387581 0.775232 -4.159731 5.116473 13.861541 2.537769 0.000000 0.000000 0.000000 -3.671547 1.294750 -8.565708 3.022739 1.058282 -0.824729 -4.845076 -5.198002 2.531140 0.000000 0.000000 0.000000 4.625215 -0.118340 1.101418 9.102837 0.704775 5.308635 -5.978217 -7.234712 0.605436 6.894077 -6.053574 -23.311153 0.000000 0.000000 0.000000 -23.103902 -39.513142 39.614396 -3.363122 -36.256494 -2.176195 44.928424 -17.409016 -7.082666 0.000000 0.000000 0.000000 19.109648 40.627093 1.421837 21.391850 19.053002 4.490827 -20.542370 33.721584 -9.383773 0.000000 0.000000 0.000000 
0.117088 0.936226 0.414149 13.005557 -83.428891 -6.519019 -0.851107 0.534401 1.391602 -1.422068 0.783475 -4.668568 5.182003 13.799048 2.826198 0.000000 0.000000 0.000000 -4.133763 1.362680 -8.245775 3.586549 1.190495 -1.163740 -6.243658 -6.536240 2.210536 0.000000 0.000000 0.000000 4.134688 -0.035444 0.064818 9.674994 0.944298 6.310341 -6.036523 -7.168272 0.262510 6.081637 -5.773045 -22.094812 0.000000 0.000000 0.000000 -23.346324 -38.694458 39.236013 -4.166407 -37.180536 -2.127398 43.666116 -18.737195 -7.337188 0.000000 0.000000 0.000000 19.471545 39.957137 1.115104 20.665789 17.888256 4.267341 -17.918340 34.767435 -8.548246 0.000000 0.000000 0.000000 
0.115907 0.936496 0.413118 13.165994 -83.998403 -6.705467 -0.736499 0.575181 1.495427 -1.373418 0.773743 -4.979628 5.137231 13.277675 3.400657 0.000000 0.000000 0.000000 -4.052935 1.326084 -7.699663 3.709331 1.295756 -2.006281 -6.121175 -6.951911 2.958417 0.000000 0.000000 0.000000 4.155617 0.016838 -0.472521 10.227305 0.995267 6.690327 -6.178751 -7.573357 0.254437 5.327574 -5.524973 -21.304699 0.000000 0.000000 0.000000 -24.058978 -36.981195 38.889456 -5.166820 -38.039579 -2.129015 43.069667 -19.896217 -7.640773 0.000000 0.000000 0.000000 19.751666 39.826318 0.718079 21.179589 16.298496 4.303763 -16.016333 36.267892 -8.317748 0.000000 0.000000 0.000000 
0.114577 0.936789 0.411848 15.262584 -84.086564 -8.817185 -0.431448 0.653808 1.664181 -1.350214 0.766347 -5.187347 4.663387 12.238108 3.455399 0.000000 0.000000 0.000000 -3.986460 1.287792 -7.167721 4.101455 1.394361 -2.202667 -7.059995 -7.813327 2.679956 0.000000 0.000000 0.000000 3.639358 0.087683 -1.217842 11.226013 0.923990 7.150480 -6.617129 -7.479041 0.535256 5.932427 -5.779224 -20.711114 0.000000 0.000000 0.000000 -24.640573 -35.769410 38.427669 -8.280352 -37.999006 -1.643740 44.396967 -23.511580 -9.156007 0.000000 0.000000 0.000000 20.372970 38.608012 0.070551 21.907411 13.695387 4.166621 -13.763381 39.298925 -8.232239 0.000000 0.000000 0.000000 
0.112987 0.937031 0.410045 13.951973 -84.825095 -7.860031 0.022597 0.841133 2.338804 -1.063293 0.697767 -5.997180 4.567308 11.529092 4.299178 0.000000 0.000000 0.000000 -3.457734 1.153303 -6.102780 4.136285 1.486716 -2.852638 -7.494114 -8.567981 3.185673 0.000000 0.000000 0.000000 3.640409 0.105373 -1.354217 11.332103 0.834468 6.550010 -6.598415 -6.945787 1.528412 5.850382 -5.874913 -20.841892 0.000000 0.000000 0.000000 -26.077375 -33.193361 38.032620 -12.113436 -38.281712 -1.240648 46.223350 -28.096236 -11.272652 0.000000 0.000000 0.000000 20.627467 36.865446 -1.307921 24.442634 11.049969 4.224763 -11.817091 43.328641 -8.879587 0.000000 0.000000 0.000000 
0.111384 0.937619 0.407504 15.777710 -85.282416 -9.686261 0.489385 0.932113 2.278323 -1.253121 0.753229 -5.665746 3.758315 10.470339 3.613080 0.000000 0.000000 0.000000 -3.383052 1.132639 -5.209860 4.521218 1.679875 -3.615776 -8.453180 -9.825466 3.616315 0.000000 0.000000 0.000000 2.941479 0.154501 -1.882348 11.990197 0.746871 6.414534 -6.886476 -6.755869 2.119976 6.702581 -6.256303 -19.859843 0.000000 0.000000 0.000000 -28.110723 -29.853334 37.517086 -16.150205 -37.429646 -1.078224 48.501516 -35.588970 -14.815580 0.000000 0.000000 0.000000 22.175313 34.792578 -3.128787 25.987071 7.191095 3.880649 -6.676975 48.291471 -7.780415 0.000000 0.000000 0.000000 
0.110191 0.937989 0.404328 17.739584 -86.568409 -11.993734 0.963235 1.100304 2.573095 -1.504606 0.840606 -5.956447 4.101615 10.828960 4.273280 0.000000 0.000000 0.000000 -2.870882 1.048696 -4.257707 4.480612 1.822805 -4.318583 -8.756824 -10.421502 4.460399 0.000000 0.000000 0.000000 2.745784 0.150907 -1.878778 11.965290 0.939968 6.491938 -6.703907 -6.193150 2.641963 6.728372 -6.329785 -19.563118 0.000000 0.000000 0.000000 -30.244321 -26.798384 37.251518 -20.157471 -35.545428 -1.169976 49.793511 -42.549503 -18.203279 0.000000 0.000000 0.000000 23.206789 32.914076 -4.845623 28.141270 3.562727 3.434295 -0.829964 51.626891 -5.800741 0.000000 0.000000 0.000000 
0.109684 0.938066 0.400749 22.187168 -87.621741 -16.499832 1.619936 1.232212 2.243894 -2.034381 1.018971 -5.311572 3.928265 11.067184 3.648067 0.000000 0.000000 0.000000 -2.369095 0.976399 -3.783752 4.371482 1.943565 -4.844703 -9.137147 -10.887722 5.034133 0.000000 0.000000 0.000000 2.447388 0.181581 -2.151288 11.991993 1.059611 6.364973 -6.622828 -5.762458 3.246514 7.142489 -6.543874 -18.677598 0.000000 0.000000 0.000000 -31.584916 -23.872418 36.590078 -24.005234 -33.256525 -1.466780 49.297579 -49.594120 -20.798197 0.000000 0.000000 0.000000 24.489400 31.022290 -6.934206 29.883059 -0.797300 2.753759 6.786115 54.968970 -2.633509 0.000000 0.000000 0.000000 
0.110007 0.938181 0.397117 27.284262 -88.636864 -21.742058 2.233669 1.368113 1.900918 -2.347430 1.132150 -5.191053 4.659261 12.109657 4.235635 0.000000 0.000000 0.000000 -1.827532 0.887727 -3.524561 4.257987 1.987371 -4.996982 -8.927643 -10.885541 5.695203 0.000000 0.000000 0.000000 2.583545 0.158424 -1.973364 11.778064 1.169839 6.170536 -6.664578 -5.121195 3.590754 7.107632 -6.600698 -18.857208 0.000000 0.000000 0.000000 -33.086243 -22.229119 36.633958 -27.027036 -30.612756 -1.988383 47.644209 -54.482888 -22.156749 0.000000 0.000000 0.000000 25.204671 29.050068 -8.528069 31.926815 -3.501537 2.080014 13.268932 56.129906 0.473811 0.000000 0.000000 0.000000 
0.110992 0.938116 0.393853 94.952384 -89.309395 -89.541641 2.504400 1.447967 1.529537 -3.060477 1.400226 -4.855258 5.298761 12.981974 4.813152 0.000000 0.000000 0.000000 -1.412108 0.839424 -3.249442 4.125907 2.028641 -4.999584 -9.153889 -11.175106 6.438666 0.000000 0.000000 0.000000 2.344209 0.140747 -1.845647 11.591004 1.416644 6.254173 -6.770889 -5.233599 3.733750 6.542866 -6.402078 -18.021743 0.000000 0.000000 0.000000 -33.778608 -20.434647 36.355318 -28.894266 -28.593562 -2.569405 44.167835 -57.360233 -21.331310 0.000000 0.000000 0.000000 26.000509 27.538829 -10.489053 34.020671 -6.468343 1.451640 18.599722 56.264124 2.785593 0.000000 0.000000 0.000000 
0.112450 0.937959 0.390950 167.045476 -87.856626 -161.944469 2.756299 1.596306 1.417486 -3.789105 1.700222 -5.115813 6.749304 15.393602 5.648671 0.000000 0.000000 0.000000 -1.045254 0.801250 -3.383741 4.586499 2.166848 -4.372380 -9.493728 -11.562480 7.489577 0.000000 0.000000 0.000000 2.435264 0.098305 -1.470999 10.942879 1.753067 6.009284 -6.433703 -4.687679 4.178740 6.032877 -6.237785 -17.330009 0.000000 0.000000 0.000000 -34.524036 -19.919502 37.083745 -29.700797 -27.231518 -3.059727 41.002522 -56.716058 -19.680240 0.000000 0.000000 0.000000 26.563497 26.735563 -12.041012 35.941626 -8.958111 0.769738 22.002532 54.505723 4.112345 0.000000 0.000000 0.000000 
